<?xml version="1.0" standalone="no"?>
<!DOCTYPE svg PUBLIC "-//W3C//DTD SVG 20010904//EN"
 "http://www.w3.org/TR/2001/REC-SVG-20010904/DTD/svg10.dtd">
<svg version="1.0" xmlns="http://www.w3.org/2000/svg"
 width="192.000000pt" height="192.000000pt" viewBox="0 0 192.000000 192.000000"
 preserveAspectRatio="xMidYMid meet">

<g transform="translate(0.000000,192.000000) scale(0.100000,-0.100000)"
fill="#000000" stroke="none">
<path d="M0 960 l0 -960 960 0 960 0 0 960 0 960 -960 0 -960 0 0 -960z m911
305 c15 -5 19 -4 15 4 -5 7 7 11 36 10 47 0 40 -6 -41 -30 -35 -10 -45 -11
-49 -1 -2 7 -9 12 -14 12 -6 0 -8 -3 -5 -7 4 -3 2 -12 -3 -19 -9 -9 15 -12
110 -12 95 0 119 3 110 12 -5 7 -7 15 -4 18 10 11 -23 16 -37 6 -11 -8 -10 -9
4 -4 9 3 17 1 17 -4 0 -12 -30 -13 -48 -1 -10 6 -8 10 10 16 34 11 78 14 73 5
-3 -4 3 -10 14 -13 14 -3 18 -14 17 -50 -1 -25 -4 -49 -8 -53 -13 -13 -9 -122
5 -128 10 -5 10 -7 0 -12 -7 -3 -13 -10 -13 -15 0 -6 5 -7 12 -3 7 4 8 3 4 -5
-4 -6 -2 -18 4 -26 16 -19 1 -19 -24 0 -11 8 -38 15 -60 14 -23 0 -34 -3 -26
-6 8 -4 21 -13 27 -22 11 -14 14 -14 22 -1 6 8 13 11 18 6 12 -12 -29 -30 -61
-27 -29 3 -34 -18 -6 -27 7 -3 10 0 6 7 -4 6 -2 11 3 11 6 0 11 -7 11 -16 0
-8 5 -12 10 -9 6 3 10 1 10 -4 0 -6 6 -11 14 -11 8 0 18 -5 22 -12 5 -8 2 -9
-11 -4 -15 5 -16 4 -5 -9 10 -12 15 -13 21 -3 4 6 6 15 4 19 -3 3 5 16 16 28
11 12 18 25 15 30 -3 5 7 13 22 19 32 12 103 15 84 3 -7 -4 -12 -14 -10 -22 2
-10 -8 -14 -35 -15 -21 -1 -43 -6 -50 -13 -6 -6 -7 -11 -1 -11 6 0 15 5 22 12
15 15 16 3 2 -22 -8 -16 -8 -18 5 -14 8 3 13 10 10 14 -11 18 35 17 51 -1 10
-11 24 -17 31 -15 7 3 13 0 13 -6 0 -7 7 -3 16 8 8 10 12 12 8 4 -6 -12 -4
-13 7 -2 16 14 33 16 24 2 -9 -14 8 -13 23 2 9 9 15 9 24 0 15 -15 32 -16 23
-2 -3 6 1 10 10 10 10 0 13 -5 9 -12 -4 -7 -4 -10 1 -6 4 4 17 2 29 -4 11 -7
25 -11 30 -10 5 2 5 -5 1 -15 -12 -32 -14 -53 -4 -53 5 0 9 5 9 11 0 5 6 7 13
3 7 -5 7 -1 -2 10 -12 15 -12 19 -1 26 11 7 11 11 -2 24 -9 8 -18 13 -21 10
-3 -3 -13 -2 -22 4 -13 7 -5 9 30 9 29 0 42 -3 33 -8 -7 -5 -8 -9 -3 -9 6 0
11 -9 11 -19 0 -11 -4 -17 -8 -15 -11 7 -10 -4 2 -27 9 -15 7 -19 -7 -20 -16
0 -16 -1 2 -9 13 -6 15 -9 5 -9 -13 -1 -13 -2 0 -11 8 -5 11 -12 7 -17 -12
-11 -77 -13 -77 -2 0 5 9 9 20 9 22 0 27 15 8 26 -7 5 -8 3 -4 -5 5 -8 3 -11
-5 -10 -16 2 -42 -6 -80 -27 -14 -7 -29 -11 -33 -7 -3 3 -6 -2 -6 -13 0 -16
-2 -17 -10 -4 -6 10 -10 11 -10 3 0 -7 -5 -13 -11 -13 -5 0 -7 6 -3 13 4 6 3
9 -1 4 -5 -4 -9 -19 -10 -33 -1 -26 -1 -26 13 -5 11 16 18 18 33 11 10 -6 16
-16 14 -23 -6 -15 -95 -21 -95 -6 0 5 4 7 10 4 6 -3 7 1 3 10 -4 12 -8 13 -13
5 -6 -9 -9 -9 -14 -1 -5 8 -17 5 -37 -9 -20 -15 -29 -17 -29 -8 0 9 -3 9 -8 2
-8 -13 -44 -15 -36 -2 3 4 -2 8 -11 8 -9 0 -13 -4 -10 -10 3 -5 -1 -10 -10
-10 -9 0 -13 5 -10 10 3 6 -4 10 -17 10 -18 0 -20 -2 -8 -10 12 -7 10 -9 -7
-7 -13 0 -25 7 -28 15 -3 8 0 10 8 6 7 -4 8 -3 4 2 -5 5 -29 9 -55 9 -43 1
-44 0 -19 -9 31 -11 35 -22 8 -22 -11 0 -17 5 -14 10 4 6 -1 6 -13 1 -29 -12
-84 -14 -84 -3 0 5 10 6 21 3 14 -5 19 -3 15 3 -4 7 1 9 14 7 11 -2 20 -1 20
3 0 4 -29 7 -65 8 -36 0 -65 -4 -65 -9 0 -4 -5 -5 -12 -1 -8 5 -9 2 -5 -9 3
-10 2 -17 -3 -17 -6 0 -10 5 -10 10 0 6 -5 10 -11 10 -5 0 -7 -5 -4 -11 9 -13
-27 -8 -37 6 -5 6 -12 4 -18 -5 -8 -13 -12 -12 -27 4 -14 16 -14 17 -1 7 11
-8 18 -9 23 -1 4 6 16 8 27 4 18 -5 19 -4 7 9 -9 9 -18 12 -25 6 -6 -5 -30 -6
-55 -4 -24 2 -39 1 -34 -3 16 -11 15 -29 -1 -29 -8 0 -14 10 -14 24 0 33 -1
37 -19 50 -15 11 -15 12 1 18 9 4 19 14 22 22 5 13 4 14 -9 3 -12 -10 -15 -10
-16 1 -1 8 -4 3 -8 -11 -4 -15 -2 -35 6 -50 16 -30 16 -40 3 -40 -5 0 -10 8
-10 18 0 13 -2 14 -9 3 -6 -9 -8 2 -7 30 1 41 -14 67 -22 37 -2 -9 0 -8 8 2 9
13 10 12 7 -5 -3 -21 -8 -22 -41 -9 -13 5 -17 4 -13 -3 5 -7 -10 -10 -42 -9
-54 1 -74 12 -51 26 13 9 13 10 0 11 -10 0 -8 3 5 9 15 6 16 9 4 9 -9 1 -16 8
-16 16 0 10 4 12 12 5 7 -5 15 -7 18 -3 4 3 7 1 7 -5 0 -25 15 -10 16 16 1 15
-1 21 -3 15 -3 -7 -12 -13 -20 -13 -9 0 -13 6 -9 15 3 8 -2 22 -11 30 -8 9
-13 19 -9 22 3 4 16 -4 28 -17 16 -17 23 -20 26 -10 3 8 0 16 -6 18 -19 6 6
42 29 42 11 0 22 -7 25 -15 4 -8 17 -15 31 -15 13 0 22 -4 19 -9 -3 -5 1 -11
9 -14 9 -4 12 -1 9 7 -3 7 2 13 10 13 8 0 13 -4 10 -9 -3 -4 0 -8 5 -8 6 0 11
4 11 8 0 4 9 8 20 9 11 1 18 -2 15 -8 -4 -5 -1 -9 4 -9 6 0 11 5 11 12 0 9 3
9 12 0 7 -7 17 -8 29 -2 12 7 20 6 25 -1 4 -8 9 -7 14 2 7 10 12 10 22 1 17
-13 38 2 38 27 0 14 1 14 10 1 13 -20 12 -33 -2 -24 -6 4 -8 3 -5 -3 4 -6 21
-9 39 -8 18 1 39 -3 46 -8 8 -6 12 -6 12 1 0 6 8 9 18 6 14 -5 15 -4 2 5 -12
9 -10 10 13 9 15 -1 27 -6 27 -10 0 -4 4 -8 10 -8 5 0 7 7 3 16 -3 8 -12 13
-20 10 -8 -3 -11 -1 -8 4 10 17 24 11 40 -17 9 -16 14 -20 11 -10 -4 11 0 17
12 18 13 0 11 3 -5 9 -13 5 -23 14 -23 19 0 13 -34 8 -43 -6 -4 -7 -14 -13
-22 -13 -7 0 -15 -5 -17 -12 -5 -13 -28 -2 -28 13 0 6 5 7 10 4 6 -3 10 1 10
9 0 9 5 16 11 16 5 0 7 -5 3 -11 -4 -7 -1 -10 6 -7 28 9 23 30 -6 27 -32 -3
-73 15 -61 27 5 5 12 2 17 -5 6 -11 13 -10 35 8 l28 21 -49 1 c-27 1 -54 1
-59 0 -6 0 -11 12 -10 28 0 16 3 27 7 24 5 -2 8 23 8 57 0 34 -4 59 -8 56 -9
-5 -8 41 1 51 4 3 7 11 7 17 0 6 -5 4 -10 -4 -7 -11 -9 -8 -8 14 2 18 9 31 20
34 10 2 15 8 13 13 -6 9 40 5 76 -6z m364 -354 c0 -28 -4 -37 -17 -38 -19 -2
-44 24 -34 34 4 4 11 1 16 -7 5 -8 12 -11 16 -7 4 4 0 15 -9 24 -15 15 -15 17
1 29 22 16 27 10 27 -35z m-415 -11 c0 -5 -7 -10 -16 -10 -8 0 -12 5 -9 10 3
6 10 10 16 10 5 0 9 -4 9 -10z m225 0 c3 -5 -1 -10 -9 -10 -9 0 -16 5 -16 10
0 6 4 10 9 10 6 0 13 -4 16 -10z m-678 -72 c-3 -8 -6 -5 -6 6 -1 11 2 17 5 13
3 -3 4 -12 1 -19z m1020 -104 c-3 -3 -12 -4 -19 -1 -8 3 -5 6 6 6 11 1 17 -2
13 -5z m-763 -69 c3 -8 1 -15 -4 -15 -6 0 -10 7 -10 15 0 8 2 15 4 15 2 0 6
-7 10 -15z m196 0 c0 -7 -10 -12 -25 -11 -37 2 -33 20 5 23 11 1 20 -4 20 -12z
m160 0 c0 -8 -2 -15 -4 -15 -2 0 -6 7 -10 15 -3 8 -1 15 4 15 6 0 10 -7 10
-15z m230 -8 c0 -7 -4 -6 -10 3 -6 10 -10 11 -10 3 0 -7 -8 -13 -17 -13 -15 0
-14 2 2 14 21 15 35 12 35 -7z m-670 9 c0 -3 -4 -8 -10 -11 -5 -3 -10 -1 -10
4 0 6 5 11 10 11 6 0 10 -2 10 -4z"/>
<path d="M877 1259 c7 -7 15 -10 18 -7 3 3 -2 9 -12 12 -14 6 -15 5 -6 -5z"/>
<path d="M834 1187 c-3 -8 -4 -47 -2 -88 l3 -74 125 0 125 0 0 85 0 85 -123 3
c-97 2 -124 0 -128 -11z m131 -27 c-13 -26 -19 -29 -36 -20 -19 11 -18 30 2
30 6 0 7 -4 4 -10 -3 -5 -2 -10 4 -10 5 0 13 9 16 20 3 11 11 20 16 20 5 0 2
-14 -6 -30z m37 -5 c0 -5 -5 -11 -10 -13 -5 -1 -9 4 -9 13 0 9 4 14 9 13 5 -2
10 -8 10 -13z m-92 -35 c0 -5 -13 -10 -30 -10 -16 0 -30 5 -30 10 0 6 14 10
30 10 17 0 30 -4 30 -10z m-5 -50 c4 -6 -7 -10 -25 -10 -18 0 -29 4 -25 10 3
6 15 10 25 10 10 0 22 -4 25 -10z m165 0 c0 -6 -28 -10 -65 -10 -37 0 -65 4
-65 10 0 6 28 10 65 10 37 0 65 -4 65 -10z m-5 -30 c-3 -5 -33 -10 -66 -10
-33 0 -59 4 -59 10 0 6 29 10 66 10 41 0 63 -4 59 -10z"/>
<path d="M1150 940 c-11 -7 -5 -8 20 -4 26 4 31 3 20 -5 -13 -9 -12 -11 3 -11
24 0 16 24 -9 28 -10 1 -26 -2 -34 -8z"/>
<path d="M1020 870 c-12 -8 -10 -10 8 -10 13 0 20 4 17 10 -7 12 -6 12 -25 0z"/>
<path d="M1117 869 c7 -7 15 -10 18 -7 3 3 -2 9 -12 12 -14 6 -15 5 -6 -5z"/>
<path d="M973 843 c7 -11 -16 -37 -24 -28 -3 2 -6 -7 -7 -20 -1 -14 3 -25 8
-25 5 0 7 -7 4 -15 -4 -8 -10 -15 -16 -15 -5 0 -6 5 -2 11 4 7 1 10 -6 7 -18
-6 -26 -29 -8 -26 8 2 12 -4 10 -16 -2 -10 1 -15 6 -12 6 3 13 0 16 -6 3 -7 3
-1 0 15 -4 16 -2 27 5 27 6 0 10 5 9 12 -2 6 5 14 16 16 10 2 16 0 12 -6 -3
-5 2 -9 12 -8 9 0 16 -4 15 -10 -1 -6 5 -11 13 -11 7 0 12 3 9 5 -3 3 1 12 8
21 10 14 10 14 -3 4 -13 -10 -21 -8 -45 12 -33 29 -50 32 -40 8 5 -14 3 -15
-6 -6 -13 13 -4 33 17 33 17 0 19 26 2 36 -6 4 -8 3 -5 -3z"/>
<path d="M759 794 c4 -16 6 -35 4 -41 -3 -7 0 -13 5 -13 12 0 5 61 -9 74 -5 6
-5 -2 0 -20z"/>
<path d="M1220 790 c0 -11 -6 -20 -12 -20 -9 0 -8 -4 2 -10 10 -6 11 -10 3
-10 -7 0 -13 -4 -13 -8 0 -4 9 -8 19 -8 11 0 17 5 13 10 -3 6 -5 23 -4 38 1
15 0 28 -3 28 -3 0 -5 -9 -5 -20z"/>
<path d="M510 776 c14 -17 13 -18 -7 -12 -12 4 -24 2 -28 -4 -3 -5 -11 -10
-16 -10 -6 0 -7 5 -3 12 4 7 3 8 -4 4 -26 -16 -11 -29 25 -23 47 8 59 20 36
38 -17 13 -17 13 -3 -5z"/>
<path d="M706 774 c1 -7 -8 -14 -22 -17 -13 -2 -24 0 -24 4 0 5 -7 9 -16 9
-13 0 -14 -3 -5 -13 6 -8 8 -17 4 -21 -4 -4 1 -4 11 0 15 6 17 4 11 -6 -5 -9
-4 -11 4 -6 6 4 9 11 6 16 -2 4 7 10 20 13 14 2 28 0 31 -4 3 -5 11 -9 17 -9
8 0 7 3 -2 9 -11 7 -11 9 0 14 8 3 5 6 -8 6 -12 1 -23 4 -26 9 -2 4 -3 2 -1
-4z"/>
<path d="M1163 774 c-3 -9 2 -23 12 -32 17 -16 17 -16 10 3 -4 11 -8 26 -8 33
-1 17 -6 15 -14 -4z"/>
<path d="M1406 774 c-8 -20 0 -32 14 -18 5 5 5 15 1 22 -6 11 -10 10 -15 -4z"/>
<path d="M804 769 c-5 -8 -3 -9 6 -4 8 5 11 3 8 -6 -3 -8 -12 -13 -19 -11 -12
3 -12 1 0 -10 11 -10 14 -10 18 0 3 6 9 10 14 6 15 -9 10 12 -5 25 -11 9 -16
9 -22 0z"/>
<path d="M1071 775 c1 -5 0 -12 -1 -15 -7 -19 -7 -39 1 -34 5 3 7 10 4 15 -9
13 9 11 23 -3 9 -9 12 -8 12 4 0 9 6 19 13 21 9 4 9 6 0 6 -6 1 -15 -4 -18
-10 -5 -6 -12 -4 -21 8 -8 10 -14 14 -13 8z"/>
<path d="M1271 768 c-1 -10 4 -18 10 -18 5 0 7 -4 4 -10 -3 -6 1 -7 9 -4 9 3
16 2 16 -3 0 -12 46 -11 57 1 4 5 2 6 -4 2 -7 -4 -13 -2 -13 3 0 6 8 11 18 12
14 0 14 2 -3 9 -30 13 -34 12 -30 -9 2 -14 -1 -18 -11 -14 -7 3 -11 9 -8 14 3
5 -4 9 -15 9 -10 0 -22 6 -24 13 -3 7 -6 5 -6 -5z"/>
<path d="M885 760 c-3 -6 1 -7 9 -4 18 7 21 14 7 14 -6 0 -13 -4 -16 -10z"/>
<path d="M1140 758 c0 -9 5 -20 10 -23 13 -8 13 5 0 25 -8 13 -10 13 -10 -2z"/>
<path d="M1240 764 c0 -13 18 -39 24 -34 2 3 -2 14 -10 24 -8 11 -14 16 -14
10z"/>
<path d="M726 715 c-3 -8 -1 -15 4 -15 6 0 10 7 10 15 0 8 -2 15 -4 15 -2 0
-6 -7 -10 -15z"/>
<path d="M1080 683 c0 -16 25 -23 41 -11 11 8 11 9 -2 5 -9 -3 -22 0 -28 6 -8
8 -11 8 -11 0z"/>
<path d="M1147 663 c3 -7 6 -13 8 -13 2 0 5 6 8 13 3 8 -1 14 -8 14 -7 0 -11
-6 -8 -14z"/>
</g>
</svg>
